# xmcd
#
# Track frame offsets:
# 150
# 17891
# 33638
# 47358
# 63225
# 70289
# 95175
# 107778
# 122881
# 136839
# 153427
# 160821
# 179080
# 189907
#
# Disc length: 2817 seconds
#
# Revision: 1
# Processed by: cddbd v1.5.2PL0 Copyright (c) Steve Scherf et al.
# Submitted via: CedeCatalogueitor 2.6.0.6 http://personales.ya.com/cdcatalogueitor
#
DISCID=c30aff0e
DTITLE=The Marzipan Man - Stories
DYEAR=1900
DGENRE=
TTITLE0=Take This Wind As An Advice
TTITLE1=Sometimes
TTITLE2=Merry Prayer Travelling Songs
TTITLE3=Buddy The Cat
TTITLE4=The Night Reality Met The Dream
TTITLE5=The Magik Ribbon
TTITLE6=Madrigal
TTITLE7=Dusk Will
TTITLE8=Landscapes
TTITLE9=Crash Bandicott
TTITLE10=Walking Song
TTITLE11=Billy The Fox
TTITLE12=The Creature On Top Of The Fire Place
TTITLE13=No Students Turned Up
EXTD=
EXTT0=
EXTT1=
EXTT2=
EXTT3=
EXTT4=
EXTT5=
EXTT6=
EXTT7=
EXTT8=
EXTT9=
EXTT10=
EXTT11=
EXTT12=
EXTT13=
PLAYORDER=
